<?xml version="1.0" standalone="no"?>
<!DOCTYPE svg PUBLIC "-//W3C//DTD SVG 20010904//EN"
 "http://www.w3.org/TR/2001/REC-SVG-20010904/DTD/svg10.dtd">
<svg version="1.0" xmlns="http://www.w3.org/2000/svg"
 width="532.000000pt" height="430.000000pt" viewBox="0 0 532.000000 430.000000"
 preserveAspectRatio="xMidYMid meet">

<g transform="translate(0.000000,430.000000) scale(0.100000,-0.100000)"
fill="#000000" stroke="none">
<path d="M3620 4289 c-295 -36 -551 -162 -771 -379 -138 -136 -235 -299 -264
-440 -6 -32 -3 -29 35 29 119 183 254 335 364 411 53 36 61 28 15 -16 -40 -38
-118 -130 -101 -120 7 4 63 41 123 82 234 158 432 233 654 249 109 7 98 -4
-35 -34 -216 -50 -425 -140 -585 -252 -102 -73 -325 -289 -375 -364 -30 -45
-22 -39 77 56 446 426 946 599 1371 476 45 -13 87 -20 94 -16 15 10 16 9 -49
49 -29 17 -53 34 -53 36 0 9 56 -9 103 -33 42 -21 56 -23 125 -17 56 4 91 1
127 -10 l50 -16 35 35 c40 41 43 36 -77 105 -133 77 -300 131 -488 159 -107
16 -291 21 -375 10z"/>
<path d="M1135 4274 c-382 -56 -663 -225 -889 -533 -251 -343 -312 -843 -159
-1306 74 -227 251 -521 474 -790 112 -136 406 -427 564 -559 278 -231 581
-445 1038 -730 247 -155 317 -208 368 -282 16 -24 36 -44 44 -44 8 0 20 18 26
39 22 74 -16 203 -91 310 -63 89 -404 407 -895 836 -414 361 -570 516 -744
737 -143 182 -277 424 -340 616 -58 177 -75 294 -75 522 0 181 3 214 22 285
29 103 65 180 136 284 31 46 56 86 56 89 0 2 -11 1 -25 -2 -25 -6 -26 -6 -11
21 53 101 239 250 355 283 45 13 38 -1 -20 -35 -46 -27 -101 -75 -86 -75 3 0
30 9 59 21 114 45 216 62 358 62 270 -1 534 -91 762 -261 200 -148 460 -431
553 -602 51 -92 33 -35 -25 85 -89 180 -251 373 -452 535 -165 133 -336 215
-592 281 -81 21 -151 41 -155 44 -13 14 188 -8 275 -30 160 -40 331 -124 505
-248 44 -31 79 -53 79 -50 0 3 -32 41 -71 85 -39 43 -68 78 -64 78 13 0 91
-59 151 -114 61 -55 175 -197 250 -310 49 -74 55 -54 15 48 -62 162 -167 302
-316 422 -260 211 -527 306 -854 303 -75 -1 -176 -7 -226 -15z m-699 -621
c-87 -203 -152 -450 -163 -616 -8 -128 -26 -105 -25 32 1 152 52 366 127 528
32 69 84 148 92 140 2 -2 -12 -40 -31 -84z m74 -92 c-35 -69 -78 -195 -97
-283 -24 -114 -24 -387 1 -513 66 -334 231 -648 509 -963 205 -234 677 -674
992 -927 192 -154 203 -164 140 -129 -128 70 -360 238 -540 390 -130 109 -677
658 -757 759 -177 224 -300 482 -384 810 -27 102 -29 123 -29 305 0 172 3 205
24 280 25 95 88 236 127 287 34 45 41 36 14 -16z m730 -2352 c168 -153 318
-295 335 -316 35 -46 40 -49 -205 156 -426 358 -590 513 -713 677 -115 153
-99 145 90 -47 103 -105 325 -317 493 -470z m963 -666 c241 -168 324 -263 341
-393 5 -38 4 -41 -5 -20 -60 140 -109 199 -288 347 -139 115 -148 123 -137
123 4 0 45 -26 89 -57z"/>
<path d="M4838 4073 c7 -3 16 -2 19 1 4 3 -2 6 -13 5 -11 0 -14 -3 -6 -6z"/>
<path d="M4748 4063 c6 -2 18 -2 25 0 6 3 1 5 -13 5 -14 0 -19 -2 -12 -5z"/>
<path d="M4890 4067 c0 -2 15 -16 33 -33 l32 -29 -29 33 c-28 30 -36 37 -36
29z"/>
<path d="M4645 4031 c-33 -20 -72 -61 -97 -101 -14 -23 -14 -31 4 -95 10 -38
21 -77 25 -85 3 -8 5 -22 4 -30 -2 -11 0 -12 9 -4 8 8 5 34 -15 103 -23 82
-24 94 -11 119 17 33 61 74 101 95 17 9 26 16 20 17 -5 0 -23 -8 -40 -19z"/>
<path d="M4990 3954 c25 -27 47 -49 50 -47 2 2 -18 25 -45 51 l-49 47 44 -51z"/>
<path d="M4308 3953 c6 -2 18 -2 25 0 6 3 1 5 -13 5 -14 0 -19 -2 -12 -5z"/>
<path d="M4438 3953 c7 -3 16 -2 19 1 4 3 -2 6 -13 5 -11 0 -14 -3 -6 -6z"/>
<path d="M1029 3926 c-194 -54 -381 -228 -463 -432 -41 -103 -38 -112 9 -23
138 260 357 402 670 435 l70 7 -40 13 c-51 16 -187 16 -246 0z"/>
<path d="M3870 3928 l-45 -11 115 -17 c63 -9 124 -20 136 -24 14 -4 27 1 43
18 21 22 21 24 4 31 -31 13 -206 15 -253 3z"/>
<path d="M4183 3899 c-35 -22 -46 -37 -15 -20 22 13 58 40 52 41 -3 0 -20 -10
-37 -21z"/>
<path d="M4998 3893 c7 -3 16 -2 19 1 4 3 -2 6 -13 5 -11 0 -14 -3 -6 -6z"/>
<path d="M4910 3875 c-31 -11 -25 -12 60 -8 69 3 91 2 80 -6 -13 -9 -13 -11 3
-11 19 0 23 19 5 24 -37 12 -117 12 -148 1z"/>
<path d="M4142 3835 c0 -16 2 -22 5 -12 2 9 2 23 0 30 -3 6 -5 -1 -5 -18z"/>
<path d="M4785 3832 c-21 -10 -35 -21 -29 -24 5 -4 27 5 49 18 47 28 37 31
-20 6z"/>
<path d="M4973 3843 c9 -2 23 -2 30 0 6 3 -1 5 -18 5 -16 0 -22 -2 -12 -5z"/>
<path d="M4918 3833 c7 -3 16 -2 19 1 4 3 -2 6 -13 5 -11 0 -14 -3 -6 -6z"/>
<path d="M5003 3813 c9 -2 25 -2 35 0 9 3 1 5 -18 5 -19 0 -27 -2 -17 -5z"/>
<path d="M5094 3812 c3 -6 -1 -12 -9 -14 -13 -2 -13 -5 3 -14 15 -10 18 -8 19
7 1 10 -3 22 -9 25 -6 4 -8 2 -4 -4z"/>
<path d="M4726 3801 c-4 -5 -2 -12 3 -15 5 -4 12 -2 15 3 4 5 2 12 -3 15 -5 4
-12 2 -15 -3z"/>
<path d="M4938 3803 c7 -3 16 -2 19 1 4 3 -2 6 -13 5 -11 0 -14 -3 -6 -6z"/>
<path d="M4768 3784 c-39 -21 -35 -28 5 -8 37 19 44 24 31 24 -5 -1 -21 -8
-36 -16z"/>
<path d="M4685 3770 c-21 -23 -8 -27 20 -7 11 8 14 16 8 20 -6 4 -18 -2 -28
-13z"/>
<path d="M4858 3783 c7 -3 16 -2 19 1 4 3 -2 6 -13 5 -11 0 -14 -3 -6 -6z"/>
<path d="M5013 3783 c9 -2 23 -2 30 0 6 3 -1 5 -18 5 -16 0 -22 -2 -12 -5z"/>
<path d="M3730 3753 c-10 -29 -16 -33 -48 -33 l-37 0 29 -23 c27 -22 28 -26
18 -55 -13 -37 -9 -39 25 -12 22 17 28 18 42 7 35 -30 41 -29 29 4 -10 28 -8
33 18 55 l29 23 -37 1 c-34 0 -38 3 -47 33 l-9 32 -12 -32z"/>
<path d="M4958 3773 c6 -2 18 -2 25 0 6 3 1 5 -13 5 -14 0 -19 -2 -12 -5z"/>
<path d="M4132 3740 c0 -19 2 -27 5 -17 2 9 2 25 0 35 -3 9 -5 1 -5 -18z"/>
<path d="M4918 3763 c7 -3 16 -2 19 1 4 3 -2 6 -13 5 -11 0 -14 -3 -6 -6z"/>
<path d="M5043 3763 c9 -2 23 -2 30 0 6 3 -1 5 -18 5 -16 0 -22 -2 -12 -5z"/>
<path d="M4878 3753 c7 -3 16 -2 19 1 4 3 -2 6 -13 5 -11 0 -14 -3 -6 -6z"/>
<path d="M4978 3753 c7 -3 16 -2 19 1 4 3 -2 6 -13 5 -11 0 -14 -3 -6 -6z"/>
<path d="M4734 3734 c-18 -14 -18 -14 6 -3 31 14 36 19 24 19 -6 0 -19 -7 -30
-16z"/>
<path d="M4928 3743 c7 -3 16 -2 19 1 4 3 -2 6 -13 5 -11 0 -14 -3 -6 -6z"/>
<path d="M4665 3710 c-29 -30 -29 -54 0 -30 9 7 13 15 10 18 -3 3 2 14 12 24
27 30 9 20 -22 -12z"/>
<path d="M4888 3733 c7 -3 16 -2 19 1 4 3 -2 6 -13 5 -11 0 -14 -3 -6 -6z"/>
<path d="M4770 3720 c-8 -5 -10 -10 -5 -10 6 0 17 5 25 10 8 5 11 10 5 10 -5
0 -17 -5 -25 -10z"/>
<path d="M4830 3720 c-18 -12 -2 -12 25 0 13 6 15 9 5 9 -8 0 -22 -4 -30 -9z"/>
<path d="M4630 3705 c-11 -13 -15 -13 -21 -3 -7 10 -9 10 -9 1 0 -7 -10 -14
-22 -14 -17 -1 -19 -2 -5 -6 9 -2 17 -8 17 -12 0 -4 7 -8 15 -8 8 0 13 3 10 5
-3 3 5 16 17 29 12 13 19 23 16 23 -3 0 -11 -7 -18 -15z"/>
<path d="M4714 3694 c-18 -14 -18 -14 6 -3 31 14 36 19 24 19 -6 0 -19 -7 -30
-16z"/>
<path d="M4423 3693 c9 -2 23 -2 30 0 6 3 -1 5 -18 5 -16 0 -22 -2 -12 -5z"/>
<path d="M4513 3693 c9 -2 23 -2 30 0 6 3 -1 5 -18 5 -16 0 -22 -2 -12 -5z"/>
<path d="M4750 3690 c-8 -5 -10 -10 -5 -10 6 0 17 5 25 10 8 5 11 10 5 10 -5
0 -17 -5 -25 -10z"/>
<path d="M1712 3674 c-16 -8 -20 -14 -12 -19 6 -4 9 -16 7 -27 -4 -15 -2 -17
8 -8 7 6 21 7 30 3 14 -5 16 -3 10 7 -5 8 -1 18 10 27 18 12 18 13 -2 13 -12
0 -23 4 -25 8 -1 4 -14 3 -26 -4z"/>
<path d="M4123 3645 c0 -22 2 -30 4 -17 2 12 2 30 0 40 -3 9 -5 -1 -4 -23z"/>
<path d="M4640 3653 c-36 -19 -39 -23 -16 -18 51 11 92 31 76 37 -8 3 -35 -6
-60 -19z"/>
<path d="M5085 3650 c-6 -27 -10 -30 -48 -30 l-41 0 33 -27 c29 -25 31 -31 22
-56 -15 -40 -14 -41 19 -17 l30 21 32 -22 c27 -20 31 -20 25 -5 -20 52 -18 61
15 81 l33 20 -42 3 c-36 3 -43 7 -52 33 -13 37 -18 37 -26 -1z"/>
<path d="M4408 3663 c6 -2 18 -2 25 0 6 3 1 5 -13 5 -14 0 -19 -2 -12 -5z"/>
<path d="M4548 3663 c6 -2 18 -2 25 0 6 3 1 5 -13 5 -14 0 -19 -2 -12 -5z"/>
<path d="M4248 3639 c-21 -11 -38 -22 -38 -24 0 -5 79 32 89 41 12 11 -18 1
-51 -17z"/>
<path d="M4450 3645 c-11 -13 -8 -13 19 -4 35 12 40 19 12 19 -10 0 -24 -7
-31 -15z"/>
<path d="M4408 3643 c7 -3 16 -2 19 1 4 3 -2 6 -13 5 -11 0 -14 -3 -6 -6z"/>
<path d="M4368 3633 c7 -3 16 -2 19 1 4 3 -2 6 -13 5 -11 0 -14 -3 -6 -6z"/>
<path d="M4528 3623 c7 -3 16 -2 19 1 4 3 -2 6 -13 5 -11 0 -14 -3 -6 -6z"/>
<path d="M4478 3613 c7 -3 16 -2 19 1 4 3 -2 6 -13 5 -11 0 -14 -3 -6 -6z"/>
<path d="M1205 3596 c-13 -9 -19 -25 -18 -49 2 -73 39 -95 103 -62 52 27 48
85 -6 85 -14 0 -24 6 -24 14 0 8 -7 17 -16 20 -20 8 -17 8 -39 -8z"/>
<path d="M4163 3584 l-28 -25 33 22 c17 13 32 24 32 26 0 8 -11 1 -37 -23z"/>
<path d="M4260 3595 c-31 -17 -44 -19 -34 -4 12 20 -55 -24 -84 -55 -25 -26
-19 -24 63 20 99 52 102 54 89 54 -5 -1 -20 -7 -34 -15z m-40 -19 c0 -2 -7 -7
-16 -10 -8 -3 -12 -2 -9 4 6 10 25 14 25 6z"/>
<path d="M4330 3595 c-14 -8 -20 -14 -15 -14 6 0 21 6 35 14 14 8 21 14 15 14
-5 0 -21 -6 -35 -14z"/>
<path d="M4110 3565 c0 -8 4 -15 10 -15 5 0 7 7 4 15 -4 8 -8 15 -10 15 -2 0
-4 -7 -4 -15z"/>
<path d="M3190 3527 c-21 -16 -14 -46 11 -44 10 1 19 7 19 13 0 7 6 15 13 17
7 4 6 6 -5 6 -9 1 -18 5 -20 10 -2 5 -10 4 -18 -2z"/>
<path d="M4215 3530 c3 -5 -3 -8 -12 -7 -18 1 -77 -32 -70 -39 2 -3 28 6 57
19 40 18 49 25 36 30 -9 4 -15 3 -11 -3z"/>
<path d="M4395 3510 c-3 -6 1 -7 9 -4 18 7 21 14 7 14 -6 0 -13 -4 -16 -10z"/>
<path d="M4954 3477 c21 -26 40 -47 43 -47 7 0 -56 78 -70 87 -6 4 6 -14 27
-40z"/>
<path d="M607 3433 c-13 -21 -31 -51 -39 -68 -20 -38 -62 -175 -56 -181 3 -2
17 29 33 68 15 40 39 95 52 121 48 96 53 128 10 60z"/>
<path d="M4363 3430 c0 -25 2 -35 4 -22 2 12 2 32 0 45 -2 12 -4 2 -4 -23z"/>
<path d="M4420 3457 c0 -9 91 -147 98 -147 4 0 -7 19 -65 105 -18 27 -33 46
-33 42z"/>
<path d="M2190 3430 c-6 -4 -20 -5 -30 -3 -41 11 -37 -54 5 -77 22 -12 27 -11
45 5 36 33 19 99 -20 75z"/>
<path d="M5000 3416 c0 -2 8 -10 18 -17 15 -13 16 -12 3 4 -13 16 -21 21 -21
13z"/>
<path d="M4194 3396 c-6 -16 20 -66 34 -66 15 0 52 32 52 45 0 17 -6 21 -48
30 -24 5 -33 3 -38 -9z"/>
<path d="M4370 3374 c0 -6 7 -19 16 -30 14 -18 14 -18 3 6 -14 31 -19 36 -19
24z"/>
<path d="M5045 3360 c10 -11 20 -20 23 -20 3 0 -3 9 -13 20 -10 11 -20 20 -23
20 -3 0 3 -9 13 -20z"/>
<path d="M801 3318 c-12 -36 -15 -38 -54 -38 l-42 0 33 -22 c33 -23 35 -34 15
-84 -6 -15 -2 -14 26 5 l33 24 29 -22 c31 -23 35 -18 19 23 -8 23 -6 29 21 48
l31 23 -38 5 c-32 4 -39 10 -49 40 l-12 35 -12 -37z"/>
<path d="M2720 3315 c-6 -17 -6 -37 3 -62 10 -32 17 -38 43 -41 35 -3 84 30
84 58 0 23 -23 42 -42 35 -10 -4 -17 1 -21 14 -8 31 -55 28 -67 -4z"/>
<path d="M5070 3326 c0 -2 8 -10 18 -17 15 -13 16 -12 3 4 -13 16 -21 21 -21
13z"/>
<path d="M4430 3270 c6 -11 13 -20 16 -20 2 0 0 9 -6 20 -6 11 -13 20 -16 20
-2 0 0 -9 6 -20z"/>
<path d="M5115 3270 c10 -11 20 -20 23 -20 3 0 -3 9 -13 20 -10 11 -20 20 -23
20 -3 0 3 -9 13 -20z"/>
<path d="M5140 3236 c0 -2 8 -10 18 -17 15 -13 16 -12 3 4 -13 16 -21 21 -21
13z"/>
<path d="M4480 3190 c6 -11 13 -20 16 -20 2 0 0 9 -6 20 -6 11 -13 20 -16 20
-2 0 0 -9 6 -20z"/>
<path d="M4596 3183 c53 -83 67 -103 71 -103 3 0 -3 12 -13 28 -53 82 -67 102
-71 102 -3 0 3 -12 13 -27z"/>
<path d="M5185 3180 c10 -11 20 -20 23 -20 3 0 -3 9 -13 20 -10 11 -20 20 -23
20 -3 0 3 -9 13 -20z"/>
<path d="M5210 3146 c0 -2 8 -10 18 -17 15 -13 16 -12 3 4 -13 16 -21 21 -21
13z"/>
<path d="M5215 3100 c-30 -8 -30 -8 8 -9 23 -1 36 3 32 9 -3 6 -7 9 -8 9 -1
-1 -15 -5 -32 -9z"/>
<path d="M4549 3085 c5 -11 17 -29 26 -40 l16 -20 -10 20 c-5 11 -17 29 -26
40 l-16 20 10 -20z"/>
<path d="M4998 3083 c23 -2 59 -2 80 0 20 2 1 4 -43 4 -44 0 -61 -2 -37 -4z"/>
<path d="M4787 3073 c18 -2 50 -2 70 0 21 2 7 4 -32 4 -38 0 -55 -2 -38 -4z"/>
<path d="M5203 3073 c15 -2 25 -9 22 -14 -10 -14 1 -10 15 6 11 13 7 15 -26
14 -31 -2 -33 -3 -11 -6z"/>
<path d="M4679 3057 c12 -15 12 -20 -2 -35 -12 -14 -14 -25 -8 -47 l9 -30 1
36 c1 45 19 61 60 54 17 -3 45 -7 61 -10 17 -2 30 0 30 5 0 6 -17 10 -37 10
-54 0 -88 11 -71 21 9 6 9 9 1 9 -6 0 -15 -5 -18 -10 -5 -8 -12 -7 -23 2 -15
12 -16 11 -3 -5z"/>
<path d="M4968 3063 c23 -2 59 -2 80 0 20 2 1 4 -43 4 -44 0 -61 -2 -37 -4z"/>
<path d="M4773 3053 c15 -2 37 -2 50 0 12 2 0 4 -28 4 -27 0 -38 -2 -22 -4z"/>
<path d="M5204 3026 c-3 -8 -4 -25 -2 -38 3 -17 5 -13 9 15 5 38 2 47 -7 23z"/>
<path d="M4750 3010 c0 -5 4 -10 9 -10 6 0 13 5 16 10 3 6 -1 10 -9 10 -9 0
-16 -4 -16 -10z"/>
<path d="M4465 2970 c-6 -26 -11 -30 -38 -30 l-32 0 24 -19 c20 -15 22 -23 16
-52 l-7 -34 22 20 c21 19 23 19 52 2 l30 -17 -7 32 c-6 26 -3 34 16 49 l24 19
-32 0 c-25 0 -33 5 -42 30 -5 17 -12 30 -15 30 -2 0 -7 -13 -11 -30z"/>
<path d="M4825 2990 c17 -4 44 -8 60 -8 25 -1 27 1 10 8 -11 5 -38 8 -60 8
-38 0 -39 -1 -10 -8z"/>
<path d="M4610 2986 c0 -2 8 -10 18 -17 15 -13 16 -12 3 4 -13 16 -21 21 -21
13z"/>
<path d="M4740 2970 c-20 -6 -21 -8 -5 -8 11 -1 38 3 60 7 l40 9 -35 0 c-19 0
-46 -4 -60 -8z"/>
<path d="M4943 2963 c20 -2 54 -2 75 0 20 2 3 4 -38 4 -41 0 -58 -2 -37 -4z"/>
<path d="M5185 2950 l-30 -8 33 -1 c17 0 32 4 32 9 0 6 -1 9 -2 9 -2 -1 -16
-5 -33 -9z"/>
<path d="M4655 2939 c6 -16 55 -42 55 -29 0 4 -7 13 -15 20 -8 7 -15 9 -15 5
0 -4 -7 -2 -15 5 -13 11 -14 10 -10 -1z"/>
<path d="M4998 2933 c18 -2 45 -2 60 0 15 2 0 4 -33 4 -33 0 -45 -2 -27 -4z"/>
<path d="M4808 2923 c18 -2 45 -2 60 0 15 2 0 4 -33 4 -33 0 -45 -2 -27 -4z"/>
<path d="M5078 2913 c18 -2 45 -2 60 0 15 2 0 4 -33 4 -33 0 -45 -2 -27 -4z"/>
<path d="M5230 2910 c-13 -8 -12 -10 3 -10 9 0 17 5 17 10 0 12 -1 12 -20 0z"/>
<path d="M4670 2906 c0 -2 8 -10 18 -17 15 -13 16 -12 3 4 -13 16 -21 21 -21
13z"/>
<path d="M4918 2903 c18 -2 45 -2 60 0 15 2 0 4 -33 4 -33 0 -45 -2 -27 -4z"/>
<path d="M640 2881 c-5 -11 -10 -26 -10 -33 0 -8 -13 -19 -30 -25 -24 -9 -30
-17 -30 -40 0 -15 4 -33 8 -39 21 -32 103 -45 158 -24 25 10 26 13 22 69 -5
77 -28 111 -73 111 -24 0 -37 -6 -45 -19z"/>
<path d="M4748 2893 c18 -2 45 -2 60 0 15 2 0 4 -33 4 -33 0 -45 -2 -27 -4z"/>
<path d="M5108 2893 c12 -2 32 -2 45 0 12 2 2 4 -23 4 -25 0 -35 -2 -22 -4z"/>
<path d="M4973 2883 c15 -2 37 -2 50 0 12 2 0 4 -28 4 -27 0 -38 -2 -22 -4z"/>
<path d="M4718 2873 c7 -3 16 -2 19 1 4 3 -2 6 -13 5 -11 0 -14 -3 -6 -6z"/>
<path d="M4813 2873 c15 -2 39 -2 55 0 15 2 2 4 -28 4 -30 0 -43 -2 -27 -4z"/>
<path d="M5238 2842 c-5 -16 -14 -22 -34 -22 l-28 0 22 -16 c16 -11 21 -22 17
-35 -7 -20 9 -27 20 -9 4 6 16 3 31 -6 24 -16 24 -16 15 9 -8 21 -6 28 12 41
l22 15 -26 0 c-17 1 -29 9 -36 23 l-10 22 -5 -22z"/>
<path d="M4761 2772 c55 -36 109 -97 146 -168 29 -56 37 -62 49 -42 4 6 3 8
-4 5 -6 -4 -23 16 -41 47 -17 30 -45 71 -63 92 -36 41 -105 94 -121 94 -6 0 9
-13 34 -28z"/>
<path d="M4574 2735 c-12 -13 -19 -27 -16 -30 3 -3 -5 -5 -18 -5 -13 0 -21 -3
-17 -6 8 -9 59 5 53 14 -2 4 2 16 9 26 11 14 21 17 42 12 21 -5 24 -4 13 4
-24 16 -43 11 -66 -15z"/>
<path d="M4697 2735 c-4 -9 6 -18 29 -25 20 -7 63 -39 96 -71 33 -32 62 -59
64 -59 12 0 1 28 -19 50 -12 14 -19 21 -14 16 15 -20 6 -28 -13 -11 -11 10
-17 21 -14 26 2 4 -10 16 -28 25 -18 9 -47 27 -65 40 -25 19 -32 21 -36 9z"/>
<path d="M5059 2723 c-32 -36 -72 -91 -89 -123 -18 -35 -7 -23 35 40 21 30 46
65 57 76 l19 22 22 -22 22 -21 -31 -22 c-37 -26 -99 -107 -108 -143 -6 -22 -5
-21 10 5 19 33 21 35 112 102 51 37 66 43 73 32 7 -11 9 -11 9 4 0 26 -19 20
-79 -23 -51 -37 -71 -44 -57 -22 3 6 27 24 52 41 l47 30 -27 10 c-14 6 -26 17
-26 26 0 22 -13 18 -41 -12z"/>
<path d="M4490 2679 c-6 -11 -10 -25 -8 -30 2 -5 8 4 15 21 13 34 9 40 -7 9z"/>
<path d="M4580 2689 c-12 -9 -11 -10 7 -6 12 3 23 2 25 -2 4 -10 188 -74 195
-68 7 8 -39 30 -125 61 -83 30 -82 29 -102 15z"/>
<path d="M4471 2614 c0 -11 3 -14 6 -6 3 7 2 16 -1 19 -3 4 -6 -2 -5 -13z"/>
<path d="M4451 2544 c0 -11 3 -14 6 -6 3 7 2 16 -1 19 -3 4 -6 -2 -5 -13z"/>
<path d="M4911 2514 c0 -11 3 -14 6 -6 3 7 2 16 -1 19 -3 4 -6 -2 -5 -13z"/>
<path d="M4441 2504 c0 -11 3 -14 6 -6 3 7 2 16 -1 19 -3 4 -6 -2 -5 -13z"/>
<path d="M4900 2476 c0 -8 -7 -21 -15 -30 -11 -11 -12 -21 -6 -38 6 -13 10
-17 10 -8 1 12 9 15 35 12 29 -3 34 -1 40 23 4 15 5 29 3 32 -3 2 -7 -8 -11
-22 -5 -19 -13 -25 -32 -25 -25 0 -26 2 -20 35 4 19 4 35 1 35 -3 0 -5 -6 -5
-14z"/>
<path d="M4426 2454 c-4 -14 -5 -28 -3 -31 3 -2 8 8 11 23 4 14 5 28 3 31 -3
2 -8 -8 -11 -23z"/>
<path d="M5101 2429 c-7 -22 -11 -43 -8 -45 2 -2 9 14 16 37 7 22 11 43 8 45
-2 2 -9 -14 -16 -37z"/>
<path d="M4411 2394 c0 -11 3 -14 6 -6 3 7 2 16 -1 19 -3 4 -6 -2 -5 -13z"/>
<path d="M4861 2400 c0 -8 4 -22 9 -30 12 -18 12 -2 0 25 -6 13 -9 15 -9 5z"/>
<path d="M817 2377 c-6 -21 -13 -27 -34 -27 -27 0 -27 0 -6 -15 14 -10 19 -22
16 -36 -5 -19 -3 -20 14 -11 15 8 25 7 41 -4 21 -15 22 -14 12 10 -8 21 -6 28
13 41 l21 15 -26 0 c-20 0 -29 7 -35 27 l-10 28 -6 -28z"/>
<path d="M4941 2384 c0 -11 3 -14 6 -6 3 7 2 16 -1 19 -3 4 -6 -2 -5 -13z"/>
<path d="M4401 2354 c0 -11 3 -14 6 -6 3 7 2 16 -1 19 -3 4 -6 -2 -5 -13z"/>
<path d="M4841 2330 c0 -8 4 -24 9 -35 5 -13 9 -14 9 -5 0 8 -4 24 -9 35 -5
13 -9 14 -9 5z"/>
<path d="M4391 2314 c0 -11 3 -14 6 -6 3 7 2 16 -1 19 -3 4 -6 -2 -5 -13z"/>
<path d="M4921 2314 c0 -11 3 -14 6 -6 3 7 2 16 -1 19 -3 4 -6 -2 -5 -13z"/>
<path d="M4831 2290 c0 -8 4 -22 9 -30 12 -18 12 -2 0 25 -6 13 -9 15 -9 5z"/>
<path d="M4906 2264 c-4 -14 -5 -28 -3 -31 3 -2 8 8 11 23 4 14 5 28 3 31 -3
2 -8 -8 -11 -23z"/>
<path d="M4371 2244 c0 -11 3 -14 6 -6 3 7 2 16 -1 19 -3 4 -6 -2 -5 -13z"/>
<path d="M4821 2255 c1 -19 18 -51 18 -35 0 8 -4 22 -9 30 -5 8 -9 11 -9 5z"/>
<path d="M746 2195 c54 -90 168 -236 253 -327 119 -127 604 -583 874 -822 135
-119 305 -274 378 -344 73 -70 129 -120 124 -112 -55 95 -293 331 -645 640
-512 449 -724 654 -885 855 -145 181 -139 176 -99 110z"/>
<path d="M4811 2220 c0 -8 4 -22 9 -30 12 -18 12 -2 0 25 -6 13 -9 15 -9 5z"/>
<path d="M4361 2204 c0 -11 3 -14 6 -6 3 7 2 16 -1 19 -3 4 -6 -2 -5 -13z"/>
<path d="M4891 2204 c0 -11 3 -14 6 -6 3 7 2 16 -1 19 -3 4 -6 -2 -5 -13z"/>
<path d="M5026 2194 c-4 -14 -5 -28 -3 -31 3 -2 8 8 11 23 4 14 5 28 3 31 -3
2 -8 -8 -11 -23z"/>
<path d="M4800 2180 c0 -8 5 -22 10 -30 9 -13 10 -13 10 0 0 8 -5 22 -10 30
-9 13 -10 13 -10 0z"/>
<path d="M4342 2130 c-1 -14 2 -30 6 -36 9 -14 373 -157 380 -149 3 3 -1 5 -9
6 -8 1 -3 4 11 8 35 9 67 74 51 104 -11 22 -11 22 -7 -2 3 -13 -1 -39 -9 -57
-13 -32 -17 -33 -59 -32 -24 1 -43 5 -41 9 3 3 -67 34 -155 69 -127 50 -160
67 -163 84 -4 18 -4 17 -5 -4z"/>
<path d="M4790 2145 c0 -5 5 -17 10 -25 5 -8 10 -10 10 -5 0 6 -5 17 -10 25
-5 8 -10 11 -10 5z"/>
<path d="M4871 2134 c0 -11 3 -14 6 -6 3 7 2 16 -1 19 -3 4 -6 -2 -5 -13z"/>
<path d="M4780 2110 c0 -8 5 -22 10 -30 9 -13 10 -13 10 0 0 8 -5 22 -10 30
-9 13 -10 13 -10 0z"/>
<path d="M4852 2073 c-6 -20 -7 -32 -2 -27 10 10 25 64 18 64 -3 0 -10 -16
-16 -37z"/>
<path d="M4987 2077 c-3 -8 -42 -40 -86 -71 -44 -31 -83 -61 -87 -67 -8 -14
161 108 176 126 7 9 11 18 8 21 -3 3 -8 -2 -11 -9z"/>
<path d="M4808 2033 c7 -3 16 -2 19 1 4 3 -2 6 -13 5 -11 0 -14 -3 -6 -6z"/>
<path d="M4317 2000 c-4 -14 -14 -20 -34 -20 l-28 -1 23 -18 c18 -16 21 -24
12 -45 -10 -26 -10 -26 16 -10 19 13 28 14 37 5 18 -18 29 -13 22 11 -6 16 -1
26 16 39 l24 19 -32 0 c-22 0 -33 5 -33 14 0 24 -17 28 -23 6z"/>
<path d="M4991 1977 c-6 -16 -11 -33 -11 -38 0 -5 -19 -9 -42 -9 l-43 0 33
-22 c33 -23 35 -34 15 -84 -6 -15 -2 -14 26 5 l33 24 29 -22 c31 -23 35 -18
19 23 -8 23 -6 29 21 48 l31 23 -38 5 c-32 4 -39 10 -49 40 l-13 35 -11 -28z"/>
<path d="M4768 1923 c6 -2 18 -2 25 0 6 3 1 5 -13 5 -14 0 -19 -2 -12 -5z"/>
<path d="M4538 1853 c17 -2 47 -2 65 0 17 2 3 4 -33 4 -36 0 -50 -2 -32 -4z"/>
<path d="M4705 1850 c27 -12 43 -12 25 0 -8 5 -22 9 -30 9 -10 0 -8 -3 5 -9z"/>
<path d="M4368 1843 c17 -2 47 -2 65 0 17 2 3 4 -33 4 -36 0 -50 -2 -32 -4z"/>
<path d="M4218 1833 c18 -2 45 -2 60 0 15 2 0 4 -33 4 -33 0 -45 -2 -27 -4z"/>
<path d="M4760 1830 c8 -5 20 -10 25 -10 6 0 3 5 -5 10 -8 5 -19 10 -25 10 -5
0 -3 -5 5 -10z"/>
<path d="M4068 1823 c18 -2 45 -2 60 0 15 2 0 4 -33 4 -33 0 -45 -2 -27 -4z"/>
<path d="M3912 1811 c-10 -6 -9 -10 7 -14 12 -3 19 -1 16 3 -3 5 12 11 32 13
l38 4 -40 1 c-22 1 -46 -2 -53 -7z"/>
<path d="M4840 1795 c25 -13 50 -24 55 -24 6 0 -10 11 -35 24 -25 13 -49 24
-55 24 -5 0 10 -11 35 -24z"/>
<path d="M3970 1775 c14 -8 30 -14 35 -14 6 0 -1 6 -15 14 -14 8 -29 14 -35
14 -5 0 1 -6 15 -14z"/>
<path d="M3917 1753 c-3 -16 -3 -31 0 -36 6 -10 183 -99 183 -92 0 3 -41 25
-91 50 -68 34 -89 50 -85 61 3 9 6 20 6 25 0 6 8 6 19 -1 30 -15 39 -11 11 5
-34 20 -37 19 -43 -12z"/>
<path d="M4975 1732 c49 -26 50 -28 56 -82 l6 -55 1 56 2 56 -49 26 c-27 15
-53 27 -57 27 -5 0 14 -13 41 -28z"/>
<path d="M4030 1725 c25 -13 50 -24 55 -24 6 0 -10 11 -35 24 -25 13 -49 24
-55 24 -5 0 10 -11 35 -24z"/>
<path d="M4090 1720 c30 -16 60 -29 65 -29 6 0 -15 13 -45 29 -30 16 -59 29
-65 29 -5 0 15 -13 45 -29z"/>
<path d="M4854 1678 c21 -29 20 -92 0 -112 -14 -15 -11 -16 33 -15 27 1 37 4
23 6 -14 3 -29 9 -35 15 -7 8 -6 9 1 5 14 -8 24 15 23 51 -1 24 -3 23 -10 -8
-7 -31 -8 -30 -5 14 3 33 1 44 -6 35 -8 -12 -9 -11 -5 1 2 10 21 17 53 21 47
6 47 6 -19 7 l-68 2 15 -22z"/>
<path d="M4707 1683 c18 -2 50 -2 70 0 21 2 7 4 -32 4 -38 0 -55 -2 -38 -4z"/>
<path d="M4150 1670 c8 -5 20 -10 25 -10 6 0 3 5 -5 10 -8 5 -19 10 -25 10 -5
0 -3 -5 5 -10z"/>
<path d="M4193 1665 c0 -8 6 -15 13 -15 8 0 14 -18 17 -47 l3 -48 2 48 2 47
58 2 57 1 -65 6 c-36 3 -70 9 -76 13 -6 4 -11 1 -11 -7z"/>
<path d="M4547 1673 c18 -2 50 -2 70 0 21 2 7 4 -32 4 -38 0 -55 -2 -38 -4z"/>
<path d="M4402 1663 c35 -4 37 -6 47 -56 l10 -52 -2 52 c-2 49 0 52 23 56 14
2 -6 4 -45 4 -38 0 -53 -2 -33 -4z"/>
<path d="M3881 1656 c2 -2 15 -9 29 -15 24 -11 24 -11 6 3 -16 13 -49 24 -35
12z"/>
<path d="M3930 1658 c3 -4 39 -24 80 -47 41 -22 68 -41 60 -41 -8 -1 13 -16
48 -33 52 -27 75 -33 130 -33 47 -1 53 0 20 3 -41 4 -48 7 -49 26 -1 17 -2 18
-6 5 -6 -23 -4 -23 -61 6 -26 13 -52 21 -58 19 -6 -2 -11 3 -11 12 0 11 7 14
21 9 17 -4 18 -3 6 5 -8 6 -23 8 -34 5 -11 -4 -16 -2 -12 4 5 8 -20 20 -119
58 -11 4 -18 5 -15 2z"/>
<path d="M4130 1601 c17 -14 20 -21 10 -21 -13 0 -13 -1 0 -10 20 -13 43 -13
38 1 -2 5 -19 19 -38 31 l-35 20 25 -21z"/>
<path d="M4429 1560 c-4 -33 -6 -35 -49 -41 -25 -4 2 -4 60 -1 112 5 147 12
62 12 -50 0 -52 1 -60 33 l-9 32 -4 -35z"/>
<path d="M5015 1581 c-6 -5 -23 -11 -40 -14 l-30 -4 31 -2 c18 0 37 6 44 14
14 16 10 21 -5 6z"/>
<path d="M4738 1543 c18 -2 45 -2 60 0 15 2 0 4 -33 4 -33 0 -45 -2 -27 -4z"/>
<path d="M4603 1533 c15 -2 39 -2 55 0 15 2 2 4 -28 4 -30 0 -43 -2 -27 -4z"/>
<path d="M3710 1333 c-200 -164 -204 -170 -125 -172 26 -1 49 16 138 100 59
55 107 98 107 94 0 -3 -43 -54 -96 -113 -53 -59 -105 -120 -117 -137 -20 -28
-20 -29 -2 -16 11 8 55 49 98 90 42 42 77 72 77 68 0 -4 -34 -53 -75 -107 -77
-102 -85 -119 -61 -139 11 -9 19 -5 40 21 33 42 33 31 1 -32 -14 -28 -24 -50
-22 -50 5 0 189 335 231 417 52 105 24 64 -47 -67 -74 -136 -174 -281 -191
-276 -23 6 -10 29 84 156 55 74 100 139 100 145 0 5 -30 -20 -66 -55 -37 -36
-65 -59 -63 -53 7 22 200 223 209 218 5 -3 10 0 13 7 2 7 3 1 1 -14 -2 -15
-51 -128 -110 -250 -59 -122 -109 -239 -111 -259 l-5 -37 63 -20 c362 -117
482 -152 500 -147 12 4 29 27 41 53 61 143 148 367 147 381 0 13 -1 14 -6 1
-34 -101 -160 -400 -174 -414 -18 -19 -22 -19 -285 65 -150 47 -269 90 -272
98 -8 20 10 63 125 303 64 135 103 228 103 248 0 22 4 31 13 27 6 -3 113 -59
237 -125 171 -91 231 -128 249 -154 20 -28 22 -29 16 -8 -4 14 -16 32 -28 41
-39 31 -477 260 -487 254 -5 -3 -11 -1 -15 5 -3 5 -11 10 -17 10 -7 0 -7 -4 1
-14 9 -11 0 -22 -41 -53 -29 -22 -103 -88 -165 -147 -92 -88 -116 -106 -142
-106 -17 0 -31 4 -31 9 0 5 81 75 180 157 99 81 180 149 180 151 0 9 -21 -7
-200 -154z"/>
<path d="M4589 1438 l-13 -48 -50 0 -51 0 38 -25 c39 -27 43 -38 27 -81 -14
-36 -6 -41 26 -15 33 26 42 26 74 1 36 -28 39 -25 27 21 -10 41 -9 43 24 70
l34 28 -46 1 c-45 0 -46 0 -61 48 l-15 47 -14 -47z"/>
<path d="M3466 1065 c-5 -19 -13 -25 -34 -25 l-27 -1 21 -17 c16 -14 19 -23
12 -41 -11 -31 -3 -38 21 -17 18 17 21 17 45 1 l26 -17 -6 30 c-5 23 -1 33 17
46 l23 16 -32 0 c-25 0 -33 5 -38 25 -3 14 -10 25 -14 25 -4 0 -11 -11 -14
-25z"/>
<path d="M3220 875 c-58 -30 -102 -54 -97 -54 4 -1 52 22 107 49 l101 50 277
-137 c210 -104 280 -144 289 -163 8 -15 13 -19 13 -9 0 8 -10 25 -23 37 -18
17 -547 283 -559 281 -2 0 -50 -24 -108 -54z"/>
<path d="M2916 729 c-98 -50 -177 -92 -175 -93 2 -2 77 -43 167 -91 90 -48
161 -90 158 -92 -3 -3 -76 33 -163 80 -87 47 -159 84 -160 83 -1 -1 1 -13 4
-26 5 -18 8 -20 12 -8 5 13 23 6 106 -39 220 -120 305 -164 305 -159 0 3 -23
17 -51 32 -28 14 -49 28 -45 31 8 8 213 -106 233 -131 l18 -20 -30 19 c-62 40
-118 68 -111 57 12 -20 -3 -14 -101 39 -52 28 -99 49 -104 47 -6 -2 49 -39
120 -83 72 -44 130 -86 131 -92 0 -7 5 -13 10 -13 18 0 10 19 -15 36 -41 27
-22 26 38 -2 53 -24 57 -28 57 -59 0 -45 -35 -84 -80 -91 -31 -5 -64 11 -293
140 -232 132 -297 162 -297 138 0 -4 8 -12 18 -18 62 -39 495 -286 509 -290
10 -4 -101 63 -246 147 -146 84 -260 154 -255 156 6 2 127 -62 270 -142 249
-141 261 -146 304 -141 41 5 43 4 26 -9 -11 -8 -34 -16 -50 -16 -28 -2 -29 -2
-5 -6 36 -6 167 64 426 225 212 133 250 165 257 219 2 15 1 21 -1 13 -16 -52
-41 -83 -89 -115 -96 -64 -477 -295 -486 -295 -5 0 -4 9 3 21 6 12 9 39 7 61
l-4 40 246 145 c135 80 252 152 260 161 13 13 12 13 -10 0 -402 -241 -499
-298 -505 -298 -3 0 -4 4 0 9 11 18 -38 49 -298 191 -144 79 -264 144 -266
146 -2 2 77 43 175 93 99 49 175 90 169 90 -5 0 -90 -41 -189 -90z m276 -374
c7 3 31 -6 53 -20 44 -27 41 -34 -6 -10 -16 9 -34 13 -39 10 -9 -5 -100 41
-100 51 0 2 18 -5 39 -16 22 -11 46 -18 53 -15z m128 -174 c-6 -12 -15 -21
-21 -21 -5 0 -2 11 8 24 21 28 29 27 13 -3z"/>
<path d="M4081 631 c-11 -37 -14 -40 -54 -43 l-42 -3 33 -20 c25 -15 32 -25
28 -40 -3 -11 -9 -31 -13 -45 l-6 -24 33 26 34 27 29 -21 c34 -25 41 -20 27
18 -11 27 -9 31 21 57 l33 27 -41 0 c-41 0 -43 1 -53 40 -6 22 -12 40 -14 40
-1 0 -8 -18 -15 -39z"/>
<path d="M2761 544 c0 -11 3 -14 6 -6 3 7 2 16 -1 19 -3 4 -6 -2 -5 -13z"/>
<path d="M2728 485 l-27 -31 172 -95 c252 -138 334 -182 316 -167 -9 7 -117
69 -241 137 l-226 125 21 28 c29 39 18 42 -15 3z"/>
<path d="M2820 436 c0 -10 371 -206 420 -221 22 -7 23 -6 11 8 -7 9 -36 30
-65 47 -43 27 -47 31 -21 26 24 -4 21 -1 -15 15 -70 32 -90 39 -90 31 0 -4 25
-22 56 -41 98 -58 49 -45 -73 20 -65 34 -140 75 -166 91 -47 28 -57 32 -57 24z
m380 -186 c8 -5 11 -10 5 -10 -5 0 -17 5 -25 10 -8 5 -10 10 -5 10 6 0 17 -5
25 -10z"/>
<path d="M2791 180 c-11 -37 -14 -40 -49 -40 l-37 0 30 -24 c27 -22 29 -26 18
-60 -6 -20 -9 -36 -7 -36 3 0 18 10 34 22 l29 21 35 -27 35 -26 -14 41 c-14
39 -14 42 8 60 12 10 27 19 32 20 6 1 -8 5 -29 8 -33 5 -41 11 -50 38 -16 47
-22 47 -35 3z"/>
<path d="M3217 169 c7 -7 15 -10 18 -7 3 3 -2 9 -12 12 -14 6 -15 5 -6 -5z"/>
</g>
</svg>
